<svg xmlns="http://www.w3.org/2000/svg" viewBox="0 0 739.33 297.09" xml:space="preserve"><path d="M377.52 135.01h12.87v-22.96h9.13v-9.28h-31.13v9.28h9.13zm31.49 0 6.56-19.28 6.55 19.28h12.59l-12.34-32.24h-13.61l-12.33 32.24zm31.74 0h12.87v-22.96h9.13v-9.28h-31.13v9.28h9.13zm31.49 0 6.56-19.28 6.55 19.28h12.59l-12.33-32.24h-13.62l-12.33 32.24zm123.51 23.05c1.59 3.65 3.69 7.6 5.78 11.12l8.42 14.18h6.1v-32.24h-5.45v11.25c0 4.93.11 9.08.53 13.36l-.11.03a89 89 0 0 0-5.49-10.8l-8.33-13.84h-6.73v32.24h5.44v-11.53c0-5.29-.08-9.55-.31-13.74zm-29.23 16.19h10.24l2.92 9.11H586l-10.47-32.24h-7.49l-10.35 32.24h6.09zm3.45-12.41c.57-1.92 1.06-4.15 1.53-6.04h.1c.49 1.87 1.02 4.07 1.63 6.06l2.54 7.95h-8.31zm-99.43 17.15c-3 0-5.89-.96-7.79-2.06l-1.31 4.88c1.76 1.08 5.3 2.06 8.71 2.06 8.32 0 12.23-4.5 12.23-9.69 0-4.63-2.69-7.45-8.29-9.58-4.3-1.64-6.17-2.81-6.17-5.28 0-1.9 1.59-3.88 5.33-3.88 3.03 0 5.28.92 6.44 1.53l1.41-4.75c-1.68-.85-4.24-1.59-7.73-1.59-6.99 0-11.41 3.98-11.41 9.26 0 4.62 3.4 7.48 8.73 9.37 4.07 1.48 5.71 2.92 5.71 5.35 0 2.62-2.11 4.38-5.86 4.38m-84.64-23.51c2.63 0 4.78.58 6.28 1.26l1.28-4.69c-1.2-.65-3.93-1.43-7.81-1.43-9.85 0-17.26 6.4-17.26 17 0 9.81 6.23 16.25 16.46 16.25 3.9 0 6.97-.77 8.36-1.47l-.97-4.64c-1.55.7-4.04 1.17-6.43 1.17-7.09 0-11.22-4.5-11.22-11.61 0-7.74 4.73-11.84 11.31-11.84m164.61 27.88v-27.29h9.29v-4.95h-24.39v4.95h9.21v27.29zm117.7-32.24-3.88 8.26c-1.1 2.34-1.99 4.34-2.79 6.4h-.1c-.88-2.18-1.72-4.02-2.81-6.39l-3.84-8.27h-6.74l10.2 18.82v13.42h5.89v-13.58l10.71-18.65h-6.64zm-257.68-.52c-9.1 0-15.35 6.99-15.35 16.89 0 9.44 5.76 16.41 14.88 16.41h.05c8.83 0 15.38-6.18 15.38-16.98-.02-9.22-5.56-16.32-14.96-16.32m-.23 28.58h-.05c-5.63 0-8.92-5.42-8.9-11.83-.01-6.43 3.09-12.04 8.97-12.04s8.9 5.75 8.9 11.83c-.01 6.74-3.23 12.04-8.92 12.04m228.33-23.7c2.63 0 4.78.58 6.28 1.26l1.28-4.69c-1.2-.65-3.93-1.43-7.81-1.43-9.85 0-17.26 6.4-17.26 17 0 9.81 6.23 16.25 16.46 16.25 3.9 0 6.97-.76 8.36-1.47l-.97-4.64c-1.55.7-4.04 1.17-6.43 1.17-7.09 0-11.22-4.5-11.22-11.61 0-7.74 4.73-11.84 11.31-11.84m-113.21-4.36h-5.89v32.24h19.15v-4.94h-13.26zm-12.59 18.42v-18.41h-5.89v18.8c0 6.32-2.55 9.23-6.79 9.23-3.99 0-6.61-2.93-6.61-9.23v-18.8h-5.89v18.45c0 10.14 4.85 14.33 12.28 14.33 7.79-.01 12.9-4.44 12.9-14.37m-56.73-18.42h-5.45v11.25c0 4.93.11 9.08.53 13.36l-.11.03a89 89 0 0 0-5.49-10.8l-8.33-13.84h-6.73v32.24h5.45v-11.53c0-5.29-.08-9.55-.31-13.73l.15-.03c1.59 3.65 3.69 7.6 5.78 11.12l8.42 14.18h6.1v-32.25zm19.31 48.36h5.89v32.24h-5.89zm-40.49 17.12v-.13c3.01-1.07 5.81-3.87 5.81-7.99 0-2.74-1-4.96-2.75-6.42-2.16-1.8-5.88-2.58-9.87-2.58s-6.63.28-8.86.69v31.55h5.8v-13.15h2.94c3.32.08 4.84 1.43 5.76 5.6.89 3.98 1.66 6.62 2.15 7.55h6c-.64-1.25-1.51-4.92-2.52-8.92-.8-3.11-2.14-5.32-4.46-6.2m-6.41-2.32h-3.46v-10.11c.59-.15 1.78-.29 3.63-.29 3.78.01 6.23 1.64 6.23 5.13 0 3.18-2.44 5.27-6.4 5.27m32.46-.06c-1.25 3.91-2.42 7.85-3.28 11.65h-.1c-.84-3.9-1.94-7.67-3.16-11.74l-4.4-14.66h-6.42l10.43 32.24h6.75l11.14-32.24h-6.27zm61.08 3.19h12.15v-4.8h-12.15v-8.29h12.87v-4.84h-18.76v32.23h19.47v-4.84h-13.58zm-18.18-13.58c2.63 0 4.78.58 6.28 1.26l1.28-4.69c-1.2-.65-3.93-1.43-7.81-1.43-9.85 0-17.26 6.4-17.26 17 0 9.81 6.23 16.25 16.46 16.25 3.9 0 6.97-.76 8.36-1.47l-.97-4.64c-1.56.7-4.04 1.17-6.43 1.17-7.09 0-11.22-4.5-11.22-11.61 0-7.74 4.73-11.84 11.31-11.84m-122.83 9.12c-4.31-1.64-6.17-2.81-6.17-5.28 0-1.9 1.59-3.88 5.32-3.88 3.03 0 5.28.92 6.44 1.53l1.41-4.75c-1.68-.85-4.24-1.59-7.73-1.59-6.99 0-11.41 3.98-11.41 9.26 0 4.62 3.4 7.48 8.73 9.37 4.07 1.48 5.71 2.92 5.71 5.35 0 2.64-2.1 4.4-5.86 4.4-3 0-5.89-.96-7.79-2.06l-1.31 4.88c1.76 1.08 5.3 2.06 8.71 2.06 8.32 0 12.23-4.5 12.23-9.69.01-4.65-2.68-7.47-8.28-9.6m19.47 4.46h12.15v-4.8h-12.15v-8.29h12.88v-4.84h-18.77v32.23h19.48v-4.84h-13.59zm151.52-4.46c-4.3-1.64-6.17-2.81-6.17-5.28 0-1.9 1.59-3.88 5.32-3.88 3.03 0 5.28.92 6.44 1.53l1.41-4.75c-1.68-.85-4.24-1.59-7.73-1.59-6.99 0-11.41 3.98-11.41 9.26 0 4.62 3.4 7.48 8.73 9.37 4.07 1.48 5.71 2.92 5.71 5.35 0 2.64-2.1 4.4-5.86 4.4-3 0-5.89-.96-7.79-2.06l-1.31 4.88c1.76 1.08 5.3 2.06 8.71 2.06 8.32 0 12.23-4.5 12.23-9.69.01-4.65-2.68-7.47-8.28-9.6" style="fill:#007dc5"/><linearGradient id="a" gradientUnits="userSpaceOnUse" x1="76.453" y1="70.897" x2="76.453" y2="119.075"><stop offset="0" style="stop-color:#ffc708"/><stop offset="1" style="stop-color:#f05731"/><stop offset="1" style="stop-color:#f05731"/></linearGradient><path d="M64.77 124.82c0-14.6 9.49-23.36 23.36-23.36V76.64c0-7.3-4.87-12.17-11.68-12.17s-11.68 4.87-11.68 12.17z" style="fill:url(#a)"/><linearGradient id="b" gradientUnits="userSpaceOnUse" x1="102.935" y1="107.918" x2="90.336" y2="199.075"><stop offset="0" style="stop-color:#f80000"/><stop offset="1" style="stop-color:#ee3984"/></linearGradient><path d="M106.14 232.61c5.84 0 11.19-.97 16.06-2.68-24.58 4.14-34.07-12.65-34.07-31.63v-77.86h28.47c6.57 0 10.95-3.89 10.95-9.49s-4.38-9.49-10.95-9.49H88.13c-13.87 0-23.36 8.76-23.36 23.36v66.91c0 26.77 15.33 40.88 41.37 40.88" style="fill:url(#b)"/><linearGradient id="c" gradientUnits="userSpaceOnUse" x1="85.442" y1="215.754" x2="151.403" y2="194.824"><stop offset="0" style="stop-color:#ee3984"/><stop offset="1" style="stop-color:#7800da"/><stop offset="1" style="stop-color:#7800da"/></linearGradient><path d="M122.2 229.93c9.73-3.65 17.28-10.46 22.14-20.44l-10.95-19.71c-4.87 14.6-13.38 22.39-25.06 22.39-12.17 0-20.2-7.06-20.2-23.12v9.25c0 18.98 9.49 35.77 34.07 31.63" style="fill:url(#c)"/><linearGradient id="d" gradientUnits="userSpaceOnUse" x1="175.106" y1="133.212" x2="199.207" y2="218.2"><stop offset="0" style="stop-color:red"/><stop offset=".999" style="stop-color:#ee3984"/><stop offset="1" style="stop-color:#ee3984"/></linearGradient><path d="M222.2 226.04c-55.48 8.27-73-21.41-73-59.61 0-27.74 17.03-46.72 41.61-46.72 9 0 16.55 1.95 23.36 5.11 3.16 1.46 5.84 1.95 8.27 1.95 5.84 0 9.73-3.89 9.73-9.73 0-3.65-2.19-7.3-7.3-9.73-9.25-4.62-21.17-7.3-34.07-7.3-38.45 0-64.97 27.25-64.97 66.91 0 38.93 25.55 65.94 66.67 65.94 11.21-.01 20.94-2.2 29.7-6.82" style="fill:url(#d)"/><linearGradient id="e" gradientUnits="userSpaceOnUse" x1="125.848" y1="133.457" x2="232.18" y2="133.457"><stop offset="0" style="stop-color:#ffc708"/><stop offset="1" style="stop-color:#fa3b00"/></linearGradient><path d="M125.85 166.91c0-39.66 26.52-66.91 64.97-66.91 12.9 0 24.82 2.68 34.07 7.3 5.11 2.43 7.3 6.08 7.3 9.73 0 5.84-3.89 9.73-9.73 9.73-2.43 0-5.11-.49-8.27-1.95-8.27-3.89-16.3-5.11-23.36-5.11-33.84.01-64.98 21.42-64.98 47.21" style="fill:url(#e)"/><linearGradient id="f" gradientUnits="userSpaceOnUse" x1="259.675" y1="164.968" x2="333.159" y2="164.968"><stop offset="0" style="stop-color:red"/><stop offset="1" style="stop-color:#ee3984"/></linearGradient><path d="M271.11 107.79c-2.19 2.19-3.41 4.87-3.41 8.03 0 8.03 7.54 19.95 25.06 32.12l19.95 13.87c14.6 10.22 20.44 19.95 20.44 34.55 0 10.46-4.14 19.47-10.95 25.79 2.43-2.19 3.89-5.11 3.89-9 0-8.52-8.52-21.9-26.77-34.55l-18.25-12.65c-15.33-10.71-21.41-20.68-21.41-34.31 0-8.03 2.92-15.33 7.79-20.68 1.23-1.23 2.44-2.2 3.66-3.17" style="fill:url(#f)"/><linearGradient id="g" gradientUnits="userSpaceOnUse" x1="318.951" y1="200.435" x2="254.258" y2="217.56"><stop offset="0" style="stop-color:#ee3984"/><stop offset="1" style="stop-color:#7800da"/></linearGradient><path d="M255.3 217.04c0 3.89 1.95 7.06 7.06 9.49 7.06 3.41 18.49 6.33 28.71 6.33 12.9 0 23.6-3.89 31.15-10.71 2.43-2.19 3.89-5.11 3.89-9 0-8.52-8.52-21.9-26.77-34.55 8.27 5.84 11.68 10.71 11.68 17.76 0 10.46-8.27 17.52-20.2 17.52-11.44 0-21.17-5.84-26.52-5.84s-9 3.65-9 9" style="fill:url(#g)"/><linearGradient id="h" gradientUnits="userSpaceOnUse" x1="267.705" y1="123.968" x2="329.509" y2="123.968"><stop offset="0" style="stop-color:#ffc708"/><stop offset="1" style="stop-color:#f05731"/><stop offset="1" style="stop-color:#f05731"/></linearGradient><path d="M292.77 147.94c-7.79-5.6-11.19-10.71-11.19-16.79 0-7.79 6.33-12.65 15.33-12.65 11.44 0 16.79 5.35 23.6 5.35 5.35 0 9-3.65 9-9 0-3.89-1.95-7.06-7.06-9.49-8.03-3.89-16.79-5.35-26.28-5.35-9.98 0-18.74 2.92-25.06 7.79-2.19 2.19-3.41 4.87-3.41 8.03 0 8.02 7.55 19.94 25.07 32.11" style="fill:url(#h)"/><linearGradient id="i" gradientUnits="userSpaceOnUse" x1="186.689" y1="202.98" x2="231.72" y2="129.408"><stop offset="0" style="stop-color:#ee3984"/><stop offset="1" style="stop-color:#7800da"/></linearGradient><path d="M149.21 166.43c0 38.2 17.52 67.89 73 59.61 17.76-9.25 30.42-27.98 39.17-56.69l5.11-16.79c-4.87-6.33-6.81-13.38-6.81-20.93 0-8.03 2.92-15.33 7.79-20.68-7.3 7.79-13.38 19.22-18.25 35.28l-5.6 18.49c-9.98 32.61-25.79 48.18-50.37 48.18-27.01 0-44.04-18.73-44.04-46.47" style="fill:url(#i)"/></svg>