<svg xmlns="http://www.w3.org/2000/svg" viewBox="0 0 739.3 297.1" xmlns:v="https://vecta.io/nano"><path d="M377.5 135h12.9v-23h9.1v-9.2h-31.1v9.2h9.1zm31.5 0 6.6-19.3L422 135h12.6l-12.3-32.2h-13.6L396.4 135zm31.7 0h13v-23h9v-9.2h-31v9.2h9zm31.5 0 6.6-19.3 6.6 19.3h12.5l-12.3-32.2H472L459.7 135zm123.6 23a104 104 0 0 0 5.7 11.2l8.4 14.2h6.1V151h-5.4v11.3c0 4.9.1 9 .5 13.3a89 89 0 0 0-5.6-10.7l-8.3-13.9h-6.7v32.3h5.4v-11.6c0-5.3 0-9.5-.3-13.7zm-29.3 16.3h10.3l2.9 9h6.3l-10.5-32.2H568l-10.3 32.3h6zm3.5-12.5 1.5-6h.1l1.6 6 2.6 8h-8.3zM470.5 179c-3 0-5.8-1-7.7-2l-1.4 4.8c1.8 1 5.3 2 8.8 2 8.3 0 12.2-4.4 12.2-9.6 0-4.6-2.7-7.5-8.3-9.6-4.3-1.6-6.2-2.8-6.2-5.3 0-1.9 1.6-3.9 5.3-3.9 3 0 5.3 1 6.5 1.6l1.4-4.8q-2.5-1.4-7.7-1.6c-7 0-11.4 4-11.4 9.3 0 4.6 3.4 7.5 8.7 9.4 4 1.4 5.7 2.9 5.7 5.3 0 2.6-2.1 4.4-5.9 4.4M386 155.5q4 .1 6.3 1.2l1.3-4.7c-1.2-.6-4-1.4-7.9-1.4-9.8 0-17.2 6.4-17.2 17 0 9.8 6.2 16.3 16.4 16.3 4 0 7-.8 8.4-1.5l-1-4.6a17 17 0 0 1-6.4 1.1c-7 0-11.2-4.5-11.2-11.6 0-7.7 4.7-11.8 11.3-11.8m164.6 27.9V156h9.3v-5h-24.4v5h9.2v27.3zM668.2 151l-3.9 8.3q-1.6 3.4-2.8 6.4l-2.9-6.4-3.8-8.3H648l10.2 18.8v13.5h6v-13.6l10.6-18.7zm-257.7-.5c-9 0-15.3 7-15.3 16.9 0 9.4 5.7 16.4 14.9 16.4 8.8 0 15.4-6.2 15.4-17 0-9.2-5.6-16.3-15-16.3m-.2 28.6c-5.7 0-9-5.4-9-11.9s3.1-12 9-12 9 5.8 9 11.8c0 6.8-3.3 12-9 12m228.3-23.6q4 .2 6.3 1.2l1.3-4.7a19 19 0 0 0-7.8-1.4c-9.9 0-17.3 6.4-17.3 17 0 9.8 6.2 16.3 16.5 16.3 3.9 0 7-.8 8.3-1.5l-1-4.6a17 17 0 0 1-6.4 1.1c-7 0-11.2-4.5-11.2-11.6 0-7.7 4.7-11.8 11.3-11.8M525.4 151h-5.9v32.3h19.2v-5h-13.3zm-12.6 18.4V151H507v19q-.2 9.4-6.8 9.3c-4 0-6.6-3-6.6-9.3v-18.8h-5.9v18.5c0 10.1 4.9 14.3 12.3 14.3 7.8 0 13-4.4 13-14.4m-57-18.5h-5.5v11.3c0 4.9.2 9 .6 13.3h-.1a89 89 0 0 0-5.5-10.7l-8.4-13.9h-6.7v32.3h5.5v-11.6c0-5.3-.1-9.5-.3-13.7h.1a104 104 0 0 0 5.8 11l8.4 14.3h6.1zm19.3 48.4h5.9v32.2h-5.9zM435 216.6c3-1.1 5.8-3.9 5.8-8q0-4.2-2.7-6.4c-2.2-1.8-5.9-2.6-9.9-2.6s-6.6.3-8.9.7v31.5h5.8v-13.1h3c3.3 0 4.8 1.4 5.7 5.6q1.5 6 2.2 7.5h6c-.6-1.2-1.5-4.9-2.5-8.9q-1.1-4.7-4.5-6.2m-6.4-2.3H425v-10.1q.9-.3 3.7-.3c3.8 0 6.2 1.6 6.2 5.1 0 3.2-2.4 5.3-6.4 5.3m32.5 0q-2 5.8-3.3 11.6h-.1q-1.4-5.8-3.2-11.8l-4.4-14.6h-6.4l10.4 32.2h6.8l11.1-32.2h-6.2zm61 3.1h12.2v-4.8H522v-8.3h13v-4.8h-18.8v32.2h19.4V227H522zm-18-13.6q4 .1 6.2 1.3l1.3-4.7q-1.9-1.2-7.8-1.4c-9.8 0-17.2 6.4-17.2 17 0 9.8 6.2 16.2 16.4 16.2q6.1-.1 8.4-1.5l-1-4.6a17 17 0 0 1-6.4 1.2c-7.1 0-11.2-4.5-11.2-11.6 0-7.8 4.7-11.9 11.3-11.9M381 213c-4.3-1.6-6.1-2.8-6.1-5.2 0-2 1.6-4 5.3-4 3 0 5.3 1 6.4 1.6l1.4-4.7q-2.4-1.5-7.7-1.6c-7 0-11.4 4-11.4 9.2 0 4.7 3.4 7.5 8.7 9.4 4.1 1.5 5.7 3 5.7 5.4 0 2.6-2 4.4-5.8 4.4-3 0-6-1-7.8-2.1l-1.3 4.9c1.7 1 5.3 2 8.7 2 8.3 0 12.2-4.5 12.2-9.7 0-4.6-2.7-7.4-8.3-9.6m19.5 4.5h12.2v-4.8h-12.2v-8.3h12.9v-4.8h-18.8v32.2h19.5V227h-13.6zM552 213c-4.3-1.6-6.1-2.8-6.1-5.2 0-2 1.5-4 5.3-4 3 0 5.3 1 6.4 1.6l1.4-4.7q-2.5-1.5-7.7-1.6c-7 0-11.4 4-11.4 9.2 0 4.7 3.4 7.5 8.7 9.4 4 1.5 5.7 3 5.7 5.4 0 2.6-2 4.4-5.8 4.4-3 0-6-1-7.8-2.1l-1.3 4.9c1.7 1 5.3 2 8.7 2 8.3 0 12.2-4.5 12.2-9.7 0-4.6-2.7-7.4-8.3-9.6" fill="#007dc5"/><linearGradient id="A" gradientUnits="userSpaceOnUse" x1="76.5" y1="70.9" x2="76.5" y2="119.1"><stop offset="0" stop-color="#ffc708"/><stop offset="1" stop-color="#f05731"/></linearGradient><path d="M64.8 124.8c0-14.6 9.5-23.3 23.3-23.3V76.6c0-7.3-4.8-12.1-11.6-12.1s-11.7 4.8-11.7 12.1z" fill="url(#A)"/><linearGradient id="B" gradientUnits="userSpaceOnUse" x1="102.9" y1="107.9" x2="90.3" y2="199.1"><stop offset="0" stop-color="#f80000"/><stop offset="1" stop-color="#ee3984"/></linearGradient><path d="M106.1 232.6q8.8 0 16.1-2.7c-24.6 4.2-34-12.6-34-31.6v-77.9h28.4c6.6 0 11-3.8 11-9.4s-4.4-9.5-11-9.5H88.1c-13.8 0-23.3 8.7-23.3 23.3v67c0 26.7 15.3 40.8 41.3 40.8" fill="url(#B)"/><linearGradient id="C" gradientUnits="userSpaceOnUse" x1="85.4" y1="215.8" x2="151.4" y2="194.8"><stop offset="0" stop-color="#ee3984"/><stop offset="1" stop-color="#7800da"/></linearGradient><path d="M122.2 230a40 40 0 0 0 22.1-20.5l-11-19.7c-4.8 14.6-13.3 22.4-25 22.4-12.1 0-20.2-7-20.2-23.1v9.2c0 19 9.5 35.8 34.1 31.6" fill="url(#C)"/><linearGradient id="D" gradientUnits="userSpaceOnUse" x1="175.1" y1="133.2" x2="199.2" y2="218.2"><stop offset="0" stop-color="red"/><stop offset="1" stop-color="#ee3984"/></linearGradient><path d="M222.2 226c-55.5 8.3-73-21.4-73-59.6 0-27.7 17-46.7 41.6-46.7 9 0 16.6 2 23.4 5.1q4.6 2.1 8.2 2c5.9 0 9.8-4 9.8-9.8 0-3.6-2.2-7.3-7.3-9.7a77 77 0 0 0-34.1-7.3c-38.4 0-65 27.3-65 67 0 38.9 25.6 65.9 66.7 65.9q16.7 0 29.7-6.9" fill="url(#D)"/><linearGradient id="E" gradientUnits="userSpaceOnUse" x1="125.8" y1="133.5" x2="232.2" y2="133.5"><stop offset="0" stop-color="#ffc708"/><stop offset="1" stop-color="#fa3b00"/></linearGradient><path d="M125.9 167c0-39.7 26.5-67 65-67 12.8 0 24.7 2.7 34 7.3 5.1 2.4 7.3 6 7.3 9.7 0 5.9-3.9 9.8-9.7 9.8q-3.6.1-8.3-2a54 54 0 0 0-23.4-5.1c-33.8 0-65 21.4-65 47.2" fill="url(#E)"/><linearGradient id="F" gradientUnits="userSpaceOnUse" x1="259.7" y1="165" x2="333.2" y2="165"><stop offset="0" stop-color="red"/><stop offset="1" stop-color="#ee3984"/></linearGradient><path d="M271.1 107.8a11 11 0 0 0-3.4 8c0 8 7.5 20 25 32.1l20 14c14.6 10.1 20.4 19.9 20.4 34.5 0 10.4-4 19.4-10.9 25.8q3.8-3.3 3.9-9c0-8.6-8.5-22-26.8-34.6L281.1 166c-15.4-10.8-21.4-20.7-21.4-34.4 0-8 2.9-15.3 7.7-20.6z" fill="url(#F)"/><linearGradient id="G" gradientUnits="userSpaceOnUse" x1="319" y1="200.4" x2="254.3" y2="217.6"><stop offset="0" stop-color="#ee3984"/><stop offset="1" stop-color="#7800da"/></linearGradient><path d="M255.3 217c0 4 2 7.1 7 9.5a73 73 0 0 0 28.8 6.4c12.9 0 23.6-4 31.1-10.7q3.8-3.3 4-9c0-8.6-8.6-22-26.9-34.6 8.3 5.8 11.7 10.7 11.7 17.8 0 10.4-8.3 17.5-20.2 17.5-11.4 0-21.2-5.9-26.5-5.9s-9 3.7-9 9" fill="url(#G)"/><linearGradient id="H" gradientUnits="userSpaceOnUse" x1="267.7" y1="124" x2="329.5" y2="124"><stop offset="0" stop-color="#ffc708"/><stop offset="1" stop-color="#f05731"/></linearGradient><path d="M292.8 148c-7.8-5.7-11.2-10.8-11.2-16.8 0-7.8 6.3-12.7 15.3-12.7 11.4 0 16.8 5.4 23.6 5.4 5.4 0 9-3.7 9-9 0-4-2-7.1-7-9.5-8-4-16.8-5.4-26.3-5.4a41 41 0 0 0-25 7.8 11 11 0 0 0-3.5 8c0 8 7.5 20 25 32.1" fill="url(#H)"/><linearGradient id="I" gradientUnits="userSpaceOnUse" x1="186.7" y1="203" x2="231.7" y2="129.4"><stop offset="0" stop-color="#ee3984"/><stop offset="1" stop-color="#7800da"/></linearGradient><path d="M149.2 166.4c0 38.2 17.5 68 73 59.6 17.8-9.2 30.4-28 39.2-56.6l5-16.8a33 33 0 0 1-6.7-21c0-8 2.9-15.3 7.8-20.6a88 88 0 0 0-18.3 35.2l-5.6 18.5c-10 32.6-25.8 48.2-50.3 48.2-27 0-44-18.7-44-46.5" fill="url(#I)"/></svg>